PathFileType	4	(X/Y/Z)	30_2_18_p0_0-620.trc
DataRate	CameraRate	NumFrames	NumMarkers	Units	OrigDataRate	OrigDataStartFrame	OrigNumFrames
59.0	59.0	6	27	m	59.0	232	621
Frame#	Time	RHip			RKnee			RAnkle			RBigToe			RSmallToe			RHeel			LHip			LKnee			LAnkle			LBigToe			LSmallToe			LHeel			Neck			Head			Nose			RShoulder			RElbow			RWrist			RThumb			RIndex			RPinky			LShoulder			LElbow			LWrist			LThumb			LIndex			LPinky			
		X1	Y1	Z1	X2	Y2	Z2	X3	Y3	Z3	X4	Y4	Z4	X5	Y5	Z5	X6	Y6	Z6	X7	Y7	Z7	X8	Y8	Z8	X9	Y9	Z9	X10	Y10	Z10	X11	Y11	Z11	X12	Y12	Z12	X13	Y13	Z13	X14	Y14	Z14	X15	Y15	Z15	X16	Y16	Z16	X17	Y17	Z17	X18	Y18	Z18	X19	Y19	Z19	X20	Y20	Z20	X21	Y21	Z21	X22	Y22	Z22	X23	Y23	Z23	X24	Y24	Z24	X25	Y25	Z25	X26	Y26	Z26	X27	Y27	Z27	
232	3.9322033898305087	0.26398262095581787	0.46594696759284226	0.9990398542377237	0.2913764495143902	0.49887726602037974	1.4068777735387386	0.2977207209332189	0.5320409152914792	1.7693086895150056	0.26107418898814294	0.3430271108081638	1.7935315836948975	0.3244648170253055	0.34940065132241577	1.7799378859238462	0.2724248362815991	0.6157161523556063	1.8491834623229244	0.06858148252454922	0.48164790411172576	1.0108080082306705	0.06658572142064716	0.5174323773257095	1.4290921220202062	0.07384161575810219	0.533093775587783	1.7790572753611138	0.08253345291914321	0.32671022918987386	1.7795961662081652	0.03233582920729404	0.39391154131329137	1.8079986808742154	0.09355209022573219	0.5685364477582049	1.830075659524501	0.18283178757136634	0.4933620064333511	0.519473023571874	0.1886625096868105	0.4727683012663483	0.2625665519670914	0.191277833752156	0.42964230995618957	0.39839842555971405	0.32215138956466327	0.48929688727383047	0.5975946185726252	0.34365258594271963	0.4563597367401418	0.8363474960455292	0.23622513711328794	0.3425122630592377	0.9790280923443004	0.15206509699599918	0.3250431043186895	1.052374607555636	0.15053654895270885	0.32497418677528855	1.0563888388831233	0.16326314315514867	0.3245069478656923	1.0764808468749667	0.027542593794081142	0.5170525582746753	0.5861391794562656	0.009511650429966717	0.4312791529754371	0.805072262287083	0.12487086342587489	0.28423968521176063	0.9408827840374954	0.1871196638116647	0.3066707096172135	1.0341883429809529	0.18491131117616158	0.3167759881320556	1.0506922535777388	0.1591050687935819	0.32618663741358844	1.0603820221829634
233	3.9491525423728815	0.26398483207492024	0.4660212020666687	0.9990686951339628	0.29138825513538624	0.498777634766854	1.4066816805817945	0.2978508876723986	0.5321410675918676	1.7694212242560035	0.2620085473820152	0.3334418100391063	1.7873852858577397	0.32423379629708704	0.3485972373319774	1.7798649323357623	0.27259747702965087	0.6160485250769846	1.8493972395748393	0.0685669229172871	0.481777673384523	1.010764866475314	0.0666057416210614	0.5173548163285218	1.4290936499595912	0.07386052774592729	0.533245197209917	1.7791676394618068	0.08359984148328098	0.3278031592966562	1.7855319952657926	0.03132599524914801	0.3941122230697318	1.8124777642523249	0.09364431378829541	0.5689049449091194	1.8302180371087444	0.18280359759176817	0.4934002576133582	0.5194864066643133	0.18868363183540096	0.47281153881955706	0.2625692920417087	0.19137426485465214	0.4300527770926444	0.3952709652473512	0.3221442194809414	0.48936980450188766	0.5975535753833118	0.3436693772882454	0.4564342163134296	0.8363152829041857	0.23618059988912388	0.3424285132283767	0.978964378225477	0.1555241818283461	0.325712315788082	1.0525374183882081	0.15074901454946146	0.32462571176411176	1.0564254960633	0.16391720359813652	0.3243466276855657	1.0726591607382545	0.02755949209618624	0.5173003303847917	0.5861834205560682	0.009082016334934571	0.4313196215167366	0.8086263149277048	0.1248931627385463	0.28435937286224544	0.9409331132819562	0.18756613785469348	0.3069222541353744	1.0343573061302134	0.18525533588421744	0.3172203687477483	1.0509659041848454	0.15962359970455398	0.3260119588482353	1.0569712612160274
234	3.9661016949152543	0.26910606295696915	0.47903940040699794	1.0079782068581111	0.2970884315318329	0.5128878790512746	1.4178990480640818	0.29798410686640003	0.5323306236612569	1.7696080630161637	0.26144557270518204	0.3436202314648093	1.7948657906554826	0.32399917767575653	0.34825298434033736	1.7801921853571019	0.2728458379827941	0.6164971513431402	1.8497784105715316	0.0694161988826562	0.48278415021827914	1.015719965995737	0.06751600353125461	0.5192325416350599	1.4354873497043745	0.07780859050192998	0.5462364490380353	1.7867796717455788	0.08262467819226879	0.32713344690499063	1.7795908371599272	0.032499527505934885	0.3943093620298745	1.8080369194031087	0.09381355379604898	0.5688750833773476	1.8301977926094042	0.1827612492232705	0.4933131493330107	0.5194473270992506	0.18866932798193475	0.472964377619397	0.2626237897787974	0.18769986586632914	0.41915338665291424	0.3904451086912911	0.3220302259955163	0.4890465790343274	0.5974497235387256	0.3436101161545696	0.4562821897702391	0.8362782366643673	0.23545703055615574	0.3412198201251559	0.9750603322076752	0.15170151283474423	0.3247786296403379	1.0524726051606332	0.15008596584870312	0.32453405718947204	1.0565144747696482	0.16380091614237557	0.3246280781874674	1.0808962726169715	0.027521824326745804	0.5172928013349297	0.5862064787512691	0.009478903921175372	0.43193188177328457	0.8052391329402256	0.1211602947246409	0.29652485835445325	0.9455499660018992	0.18664967051245218	0.30722706089030033	1.0345478453930383	0.18461807345535466	0.3172028123152238	1.050938652735631	0.15911033397666832	0.3262741688518591	1.06038498673659
235	3.983050847457627	0.2642016164906447	0.46634987556058216	0.9996192474005422	0.2970869877471188	0.5128289378347086	1.4179114724707433	0.2979937375023125	0.5323220419152518	1.7695382571706184	0.2613704854216314	0.3435772128015715	1.7945007550532615	0.3243036926795453	0.3488415891381216	1.7801270951084764	0.27286525391052724	0.6165898650446405	1.8498504304145162	0.06930647542414735	0.4826543912511801	1.015716960608466	0.06665459139757714	0.5191459240444035	1.439341022181229	0.07782944599921468	0.5461398673833813	1.7869733692385168	0.08262207522450607	0.32724017142275413	1.779746479127804	0.03603764705228711	0.4072978036446896	1.8162904589022706	0.0950075783132799	0.5705629463198075	1.83648909030155	0.1827243343567398	0.4933039708057739	0.5194390112756071	0.18495069053484595	0.462445081510252	0.2616592587553165	0.18807179035922203	0.4198977474482632	0.39385431607270194	0.32203946817597523	0.48905947687346135	0.5974820472477478	0.3436182755071369	0.4560701253351021	0.8362604239663052	0.23606843309786762	0.3422342738933304	0.9788690699124313	0.1517649601563021	0.32482484913966564	1.0524278686568063	0.15022948583759713	0.32478595036105495	1.0565335045816506	0.16357377186819066	0.32468745735080845	1.0850945228089013	0.027488512727886227	0.5172600503022433	0.5862270245864997	0.009484247428857218	0.4319366389924396	0.8053098415848773	0.12119501507290126	0.2966046570443585	0.945588552643759	0.18708748174084236	0.3070346446757333	1.0344970856660847	0.1850105034767734	0.3171520566103383	1.050965616813693	0.15916571086422754	0.3260257003683476	1.0604093735665139
236	4.0	0.26831329469853493	0.4780475879550406	1.003660600793972	0.2964121969955359	0.5105460184927856	1.4163248365635641	0.3026728084028504	0.5346371076672289	1.770714894721914	0.2653633740630401	0.35542850329442666	1.8021744853871766	0.328286186928878	0.3601363530111737	1.7873773890965703	0.27699010652842104	0.6309800728147683	1.8641419757238755	0.06931358439939717	0.4826972937878723	1.0157630229838959	0.06749945431299074	0.5192609219517627	1.4356076637729864	0.07902244158891496	0.5473712650988108	1.793216699106097	0.08262177411148877	0.32709939631078006	1.7796755970031695	0.03249704287613947	0.3942971014514152	1.8081473045521752	0.09500586813618679	0.570645891266963	1.8368539935961576	0.1827174928150452	0.4933163370859712	0.5194360638692499	0.18492793805752958	0.4625028763955542	0.261747715318111	0.18400593323217684	0.4180509217203878	0.39373288371038645	0.3220278601469976	0.4890345695599421	0.5974483968463563	0.3436357490276676	0.4561380330572916	0.8362627443304623	0.23611340800025066	0.34231887386024473	0.9789329719021751	0.15152950064250598	0.3246312871498751	1.0523710736486918	0.1499729093743349	0.3245032539411615	1.0564129681632082	0.16252940845787978	0.3235759039097344	1.080417021472805	0.027501192389343416	0.517330412174063	0.5862266044820977	0.009472555110345272	0.43180455666365336	0.8052827694022008	0.12119851671430473	0.29657019682453345	0.9455819512234931	0.19057130414105533	0.31754030079547435	1.0382419956830522	0.18830283565410796	0.32803341496066324	1.054912908310751	0.15917603226591892	0.3262385964256372	1.0604158153873309
237	4.016949152542373	0.2683146348743	0.4779775466244596	1.003461282167992	0.291433061740623	0.4988972769009492	1.4068225517156474	0.3017272270659087	0.5345140337957485	1.7751443683527524	0.2651045270978019	0.3549729401893796	1.8015078956022679	0.324522072053999	0.3498375653850139	1.780313012659141	0.2766467866660966	0.6301898977032269	1.8635078181117768	0.06936361337461011	0.48280980141641766	1.0157828083607308	0.06658154798581387	0.5177233451037581	1.429633751545983	0.0778037328957888	0.5459320523754614	1.7869024231379045	0.08260678660068005	0.32711545960842564	1.779601638255584	0.032456566925396155	0.394305202327064	1.8081760392290203	0.09495731393892251	0.5704237827442508	1.8363684363290194	0.1827271324895334	0.4932900166788384	0.5194650864395588	0.18490940824536534	0.4624487650811841	0.2617704497949807	0.1840196688932971	0.418087885803547	0.39376951340516814	0.3177856820632231	0.47821803114365513	0.5952529530564087	0.3436228800214202	0.4562090056488328	0.8362529205251061	0.23548896295172972	0.34145841067618943	0.9751652763594829	0.15166368144782133	0.32479575979206443	1.0523782916493152	0.15005188751684204	0.32463991016417004	1.0563933401063677	0.16312320388818852	0.32420156686412277	1.0766004873626993	0.024523372635707474	0.5056671940229146	0.5838846274714701	0.009469828933975822	0.4318060307370521	0.805311744667623	0.12113940165564366	0.29655778584663484	0.9455801688243312	0.19039574255165934	0.31736160719573003	1.038085491379144	0.18817376353668866	0.32794665261705236	1.054858842235326	0.1591341186368209	0.32612098341	1.0603959893012371
